<?xml version="1.0" encoding="iso-8859-1"?>
<!-- Generator: Adobe Illustrator 16.0.0, SVG Export Plug-In . SVG Version: 6.00 Build 0)  -->
<!DOCTYPE svg PUBLIC "-//W3C//DTD SVG 1.1//EN" "http://www.w3.org/Graphics/SVG/1.1/DTD/svg11.dtd">
<svg version="1.1" id="Capa_1" xmlns="http://www.w3.org/2000/svg" xmlns:xlink="http://www.w3.org/1999/xlink" x="0px" y="0px"
	 width="898.034px" height="898.034px" viewBox="0 0 898.034 898.034" fill="#ffffff"
	 xml:space="preserve">
<g>
	<g>
		<path d="M868.104,179.616H29.934C0,179.616,0,194.582,0,209.55v478.937c0,29.932,14.968,29.932,29.934,29.932h123.3
			l34.084-136.512c0.877-3.334,3.858-5.672,7.249-5.672h508.9c3.508,0,6.432,2.338,7.249,5.672l34.143,136.512h123.244
			c29.932,0,29.932-14.967,29.932-29.932V209.549C898.034,179.616,883.069,179.616,868.104,179.616z M705.572,523.852H192.463
			c-66.182,0-119.734-53.643-119.734-119.735c0-66.094,53.552-119.735,119.734-119.735h513.109
			c66.183,0,119.731,53.642,119.731,119.735C825.305,470.209,771.755,523.852,705.572,523.852z"/>
		<path d="M192.463,301.513c-56.65,0-102.663,45.923-102.663,102.604c0,56.68,46.013,102.604,102.663,102.604
			c56.709,0,102.664-45.924,102.664-102.604C295.127,347.436,249.173,301.513,192.463,301.513z M260.516,427.093l-26.776-9.032
			l-8.535,14.791l21.28,18.739c-10.349,11.721-24.203,19.145-39.989,22.391l-5.496-27.125H183.87l-5.378,27.125
			c-15.845-3.244-29.817-10.729-40.048-22.449l21.28-18.68l-8.594-14.849l-26.718,9.091c-2.456-7.278-4.677-14.82-4.677-22.976
			c0-8.156,2.222-15.698,4.677-23.035l26.718,9.031l8.594-14.791l-21.28-18.681c10.29-11.721,24.203-19.146,40.048-22.391
			l5.378,27.126h17.129l5.496-27.126c15.787,3.245,29.642,10.669,39.989,22.391l-21.28,18.681l8.535,14.85l26.776-9.032
			c2.515,7.279,4.678,14.82,4.678,22.978C265.193,412.272,263.029,419.814,260.516,427.093z"/>
		<path d="M705.572,301.513c-56.594,0-102.548,45.923-102.548,102.604c0,56.68,45.954,102.604,102.548,102.604
			c56.824,0,102.662-45.924,102.662-102.604C808.235,347.436,762.397,301.513,705.572,301.513z M773.625,427.093l-26.779-9.032
			l-8.534,14.791l21.396,18.739c-10.406,11.721-24.203,19.145-40.104,22.391l-5.495-27.125h-17.071l-5.378,27.125
			c-15.905-3.244-29.702-10.729-39.991-22.449l21.162-18.68l-8.535-14.849l-26.658,9.031c-2.455-7.277-4.677-14.761-4.677-22.917
			s2.222-15.698,4.677-22.978l26.658,8.974l8.535-14.791l-21.162-18.681c10.289-11.721,24.086-19.146,39.991-22.391l5.378,27.126
			h17.071l5.495-27.126c15.783,3.245,29.697,10.669,40.104,22.391l-21.396,18.681l8.534,14.85l26.779-9.032
			c2.572,7.279,4.677,14.82,4.677,22.978C778.302,412.272,776.197,419.814,773.625,427.093z"/>
		<path d="M331.491,436.213h235.17V303.646h-235.17V436.213L331.491,436.213z M482.591,318.612
			c-10.204,26.602-16.399,55.279-16.399,85.504c0,5.875,1.228,11.371,1.637,17.129h-88.98c0.584-5.758,1.755-11.254,1.755-17.129
			c0-31.016-8.186-59.75-21.399-85.504H482.591z"/>
		<path d="M200.472,591.2l-31.863,127.219h560.816L697.622,591.2H200.472z M246.951,703.452c-12.394,0-22.449-10.057-22.449-22.451
			s10.055-22.449,22.449-22.449c12.396,0,22.451,10.057,22.451,22.449C269.402,693.395,259.346,703.452,246.951,703.452z
			 M329.271,673.518c-8.245,0-14.969-6.725-14.969-14.967s6.724-14.967,14.969-14.967c8.302,0,14.966,6.725,14.966,14.967
			C344.236,666.795,337.571,673.518,329.271,673.518z M449.004,643.586c-8.245,0-14.968-6.727-14.968-14.969
			c0-8.244,6.723-14.967,14.968-14.967c8.301,0,14.965,6.725,14.965,14.967S457.305,643.586,449.004,643.586z M583.733,673.518
			c-8.303,0-14.967-6.725-14.967-14.967s6.664-14.967,14.967-14.967c8.301,0,14.966,6.725,14.966,14.967
			C598.698,666.795,592.033,673.518,583.733,673.518z M651.083,703.452c-12.394,0-22.449-10.057-22.449-22.451
			s10.057-22.449,22.449-22.449s22.449,10.057,22.449,22.449C673.532,693.395,663.478,703.452,651.083,703.452z"/>
	</g>
</g>
<g>
</g>
<g>
</g>
<g>
</g>
<g>
</g>
<g>
</g>
<g>
</g>
<g>
</g>
<g>
</g>
<g>
</g>
<g>
</g>
<g>
</g>
<g>
</g>
<g>
</g>
<g>
</g>
<g>
</g>
</svg>
